<?xml version="1.0" encoding="UTF-8" standalone="no"?>
<!-- Created with Inkscape (http://www.inkscape.org/) -->

<svg
   version="1.1"
   id="svg2"
   xml:space="preserve"
   width="264.44"
   height="264.06668"
   viewBox="0 0 264.44 264.06668"
   sodipodi:docname="ubc-logo-2018-crest-blue282-pms.eps"
   xmlns:inkscape="http://www.inkscape.org/namespaces/inkscape"
   xmlns:sodipodi="http://sodipodi.sourceforge.net/DTD/sodipodi-0.dtd"
   xmlns="http://www.w3.org/2000/svg"
   xmlns:svg="http://www.w3.org/2000/svg"><defs
     id="defs6" /><sodipodi:namedview
     id="namedview4"
     pagecolor="#ffffff"
     bordercolor="#666666"
     borderopacity="1.0"
     inkscape:pageshadow="2"
     inkscape:pageopacity="0.0"
     inkscape:pagecheckerboard="0" /><g
     id="g8"
     inkscape:groupmode="layer"
     inkscape:label="ink_ext_XXXXXX"
     transform="matrix(1.3333333,0,0,-1.3333333,0,264.06667)"><g
       id="g10"
       transform="scale(0.1)"><path
         d="m 993.332,1104.31 52.778,-382.88 173.46,289.86 -73.6,-318.821 187,178.91 -97.37,-236.188 155.58,116.11 C 1318.76,554.211 1255.65,443.719 993.332,353.898 v 0 0 C 731.02,443.719 667.902,554.211 595.484,751.301 l 155.586,-116.11 -97.379,236.188 187.004,-178.91 -73.601,318.821 173.465,-289.86 52.777,382.88 h -0.004"
         style="fill:#15213a;fill-opacity:1;fill-rule:nonzero;stroke:none"
         id="path12" /><path
         d="m 718.535,1232.59 c -79.48,0 -126.945,42.53 -126.945,114 v 171.08 h 65.894 v -168.39 c 0,-41.52 21.836,-64.35 61.563,-64.35 40.738,0 62.34,21.87 62.34,63.17 v 169.57 h 66.332 v -169.95 c 0,-71.03 -49.492,-115.13 -129.184,-115.13"
         style="fill:#15213a;fill-opacity:1;fill-rule:nonzero;stroke:none"
         id="path14" /><path
         d="m 995.801,1237.33 h -92.024 v 280.34 h 93.395 c 68.278,0 105.888,-26.51 105.888,-74.46 0,-25.23 -13.16,-44.65 -38.28,-56.55 33.68,-11.88 50.79,-34.13 50.79,-66.28 0,-53.59 -42.5,-83.05 -119.769,-83.05 m -28.36,46.82 h 28.36 c 25.629,0 56.089,6.54 56.089,37.79 0,32.21 -30.97,39.06 -57.027,39.06 h -27.422 z m 0,120.9 h 23.946 c 32.063,0 49.813,12.04 49.813,33.84 0,21.45 -15.47,31.91 -47.196,31.91 h -26.563 v -65.75"
         style="fill:#15213a;fill-opacity:1;fill-rule:nonzero;stroke:none"
         id="path16" /><path
         d="m 1300.14,1232.59 c -90.75,0 -149.34,56.66 -149.34,144.53 0,86.84 60.74,145.23 151.13,145.23 33.51,0 61.72,-6.6 86.21,-20.19 l 2.15,-1.2 -9.85,-57.08 -4.33,2.89 c -24.06,16.15 -46.95,23.61 -71.95,23.61 -53.91,0 -86.14,-34.75 -86.14,-92.91 0,-57.09 33.33,-92.54 87.03,-92.54 25.43,0 50.47,7.64 76.53,23.32 l 4.3,2.58 9.29,-53.24 -2.07,-1.21 c -26.76,-15.32 -59.76,-23.79 -92.96,-23.79"
         style="fill:#15213a;fill-opacity:1;fill-rule:nonzero;stroke:none"
         id="path18" /><path
         d="m 993.332,294.52 c -309.687,87.73 -457.5,292.191 -457.5,583.671 V 1568.15 H 1450.83 V 878.191 c 0,-291.48 -147.82,-495.941 -457.498,-583.671 z m -495,1311.13 V 873.5 c 0,-307.699 167.418,-530.48 495,-617.852 327.578,87.372 494.998,310.153 494.998,617.852 v 732.15 H 498.332"
         style="fill:#15213a;fill-opacity:1;fill-rule:nonzero;stroke:none"
         id="path20" /><path
         d="m 993.348,1138.04 c 69.022,0 78.352,-28.01 133.952,-27.66 55.38,-0.35 64.87,27.66 133.9,27.66 69.02,0 78.51,-28.01 133.95,-27.66 v 64.28 c -55.44,-0.38 -64.93,27.28 -133.95,27.28 -69.03,0 -78.52,-27.66 -133.9,-27.28 -55.6,-0.38 -64.93,27.28 -133.952,27.28 -69.028,0 -78.36,-27.66 -133.946,-27.28 -55.39,-0.38 -64.886,27.28 -133.906,27.28 -69.027,0 -78.555,-27.66 -133.945,-27.28 v -64.28 c 55.39,-0.35 64.918,27.66 133.945,27.66 69.02,0 78.516,-28.01 133.906,-27.66 55.586,-0.35 64.918,27.66 133.946,27.66"
         style="fill:#15213a;fill-opacity:1;fill-rule:nonzero;stroke:none"
         id="path22" /><path
         d="m 1037.08,1021.88 c 33.3,-7.97 49.14,-23.181 90.22,-22.923 55.38,-0.348 64.87,27.653 133.9,27.653 69.02,0 78.51,-28.001 133.95,-27.653 v 64.273 c -55.44,-0.37 -64.93,27.29 -133.95,27.29 -69.03,0 -78.52,-27.66 -133.9,-27.29 -44.63,-0.29 -59.48,17.46 -99.29,24.48 l 9.07,-65.83"
         style="fill:#15213a;fill-opacity:1;fill-rule:nonzero;stroke:none"
         id="path24" /><path
         d="m 859.402,998.957 c 41.059,-0.258 56.903,14.943 90.18,22.913 l 9.074,65.83 c -39.797,-7.02 -54.64,-24.76 -99.254,-24.47 -55.39,-0.37 -64.886,27.29 -133.906,27.29 -69.027,0 -78.555,-27.66 -133.945,-27.29 v -64.273 c 55.39,-0.348 64.918,27.653 133.945,27.653 69.02,0 78.516,-28.001 133.906,-27.653"
         style="fill:#15213a;fill-opacity:1;fill-rule:nonzero;stroke:none"
         id="path26" /><path
         d="m 1053.09,905.77 c 18.83,-6.469 33.29,-14.379 55.66,-17.18 l 38.58,64.461 c -6.03,-0.821 -12.61,-1.289 -20.03,-1.242 -38.2,-0.25 -54.56,12.722 -83.44,20.871 l 9.23,-66.91"
         style="fill:#15213a;fill-opacity:1;fill-rule:nonzero;stroke:none"
         id="path28" /><path
         d="m 1229.78,912.891 c 9.03,1.418 19.29,2.3 31.42,2.3 69.02,0 78.51,-28 133.95,-27.66 v 64.278 c -55.44,-0.368 -64.93,27.293 -133.95,27.293 -5.84,0 -11.22,-0.211 -16.26,-0.582 l -15.16,-65.629"
         style="fill:#15213a;fill-opacity:1;fill-rule:nonzero;stroke:none"
         id="path30" /><path
         d="m 756.883,912.891 -15.153,65.64 c -5.039,0.36 -10.41,0.571 -16.234,0.571 -69.027,0 -78.555,-27.661 -133.945,-27.293 v -64.278 c 55.39,-0.34 64.918,27.66 133.945,27.66 12.113,0 22.367,-0.871 31.387,-2.3"
         style="fill:#15213a;fill-opacity:1;fill-rule:nonzero;stroke:none"
         id="path32" /><path
         d="m 877.918,888.578 c 22.367,2.813 36.836,10.711 55.66,17.184 l 9.223,66.91 c -28.863,-8.152 -45.223,-21.113 -83.399,-20.863 -7.437,-0.047 -14.031,0.421 -20.074,1.25 l 38.59,-64.481"
         style="fill:#15213a;fill-opacity:1;fill-rule:nonzero;stroke:none"
         id="path34" /></g></g></svg>
